<!-- generated by magia-cli v0.1.0 -->
<svg xmlns="http://www.w3.org/2000/svg" viewBox="-169.06 -317.61 369.06 509.68">
<defs>
<path id="sig-arc-0-0" d="M-132.00,0.00 C-132.00,-72.90 -72.90,-132.00 0.00,-132.00 C72.90,-132.00 132.00,-72.90 132.00,0.00" fill="none"/>
</defs>
<g class="layer-control-flow">
<line class="edge-control-flow" x1="120.00" y1="0.00" x2="148.00" y2="0.00" stroke="#000000" stroke-width="1.00"/>
<line class="edge-control-flow" x1="37.08" y1="-114.13" x2="48.21" y2="-148.36" stroke="#000000" stroke-width="1.00"/>
<line class="edge-control-flow" x1="77.87" y1="-239.67" x2="86.52" y2="-266.30" stroke="#000000" stroke-width="1.00"/>
<line class="edge-control-flow" x1="37.08" y1="-114.13" x2="45.73" y2="-140.76" stroke="#000000" stroke-width="1.00"/>
<line class="edge-control-flow" x1="-97.08" y1="-70.53" x2="-119.73" y2="-86.99" stroke="#000000" stroke-width="1.00"/>
<line class="edge-control-flow" x1="-97.08" y1="70.53" x2="-119.73" y2="86.99" stroke="#000000" stroke-width="1.00"/>
<line class="edge-control-flow" x1="37.08" y1="114.13" x2="45.73" y2="140.76" stroke="#000000" stroke-width="1.00"/>
<circle class="main-ring" cx="0.00" cy="0.00" r="120.00" fill="none" stroke="#000000" stroke-width="2.00"/>
<circle class="aux-ring" cx="63.04" cy="-194.02" r="48.00" fill="none" stroke="#000000" stroke-width="1.50"/>
<polygon class="sym-loop" points="68.04,-236.02 68.04,-228.02 58.04,-232.02" fill="#000000"/>
</g>
<g class="layer-effects">
<circle class="op-dot" cx="104.00" cy="0.00" r="3.50" fill="#000000"/>
<circle class="op-dot" cx="32.14" cy="-98.91" r="3.50" fill="#000000"/>
<circle class="op-dot" cx="-84.14" cy="-61.13" r="3.50" fill="#000000"/>
<circle class="op-dot" cx="-84.14" cy="61.13" r="3.50" fill="#000000"/>
<circle class="op-dot" cx="32.14" cy="98.91" r="3.50" fill="#000000"/>
<circle class="summon-glyph" cx="162.00" cy="0.00" r="14.00" fill="#000000"/>
<circle class="op-dot" cx="95.04" cy="-194.02" r="3.50" fill="#000000"/>
<circle class="summon-glyph" cx="90.85" cy="-279.61" r="14.00" fill="#000000"/>
<circle class="summon-glyph" cx="50.06" cy="-154.07" r="14.00" fill="#000000"/>
<circle class="summon-glyph" cx="-131.06" cy="-95.22" r="14.00" fill="#000000"/>
<circle class="summon-glyph" cx="-131.06" cy="95.22" r="14.00" fill="#000000"/>
<circle class="summon-glyph" cx="50.06" cy="154.07" r="14.00" fill="#000000"/>
</g>
<g class="layer-type-info">
<text class="signature" font-size="11" fill="#000000"><textPath href="#sig-arc-0-0" startOffset="50%" text-anchor="middle">fn layout_with (graph : &amp; MagiaGraph , options : LayoutOptions) -&gt; LayoutResult</textPath></text>
</g>
</svg>
