<!-- generated by magia-cli v0.1.0 -->
<svg xmlns="http://www.w3.org/2000/svg" viewBox="-323.46 -312.89 523.46 642.75">
<defs>
<path id="sig-arc-0-0" d="M-132.00,0.00 C-132.00,-72.90 -72.90,-132.00 0.00,-132.00 C72.90,-132.00 132.00,-72.90 132.00,0.00" fill="none"/>
</defs>
<g class="layer-control-flow">
<line class="edge-control-flow" x1="120.00" y1="0.00" x2="148.00" y2="0.00" stroke="#000000" stroke-width="1.00"/>
<line class="edge-control-flow" x1="91.93" y1="-77.13" x2="113.37" y2="-95.13" stroke="#000000" stroke-width="1.00"/>
<line class="edge-control-flow" x1="20.84" y1="-118.18" x2="25.70" y2="-145.75" stroke="#000000" stroke-width="1.00"/>
<line class="edge-control-flow" x1="-42.55" y1="-112.20" x2="-55.32" y2="-145.86" stroke="#000000" stroke-width="1.00"/>
<line class="edge-control-flow" x1="-89.36" y1="-235.62" x2="-99.29" y2="-261.80" stroke="#000000" stroke-width="1.00"/>
<line class="edge-control-flow" x1="-60.00" y1="-103.92" x2="-74.00" y2="-128.17" stroke="#000000" stroke-width="1.00"/>
<line class="edge-control-flow" x1="-112.76" y1="-41.04" x2="-139.07" y2="-50.62" stroke="#000000" stroke-width="1.00"/>
<line class="edge-control-flow" x1="-116.51" y1="28.72" x2="-151.47" y2="37.33" stroke="#000000" stroke-width="1.00"/>
<line class="edge-control-flow" x1="-244.68" y1="60.31" x2="-271.86" y2="67.01" stroke="#000000" stroke-width="1.00"/>
<line class="edge-control-flow" x1="-112.76" y1="41.04" x2="-139.07" y2="50.62" stroke="#000000" stroke-width="1.00"/>
<line class="edge-control-flow" x1="-60.00" y1="103.92" x2="-74.00" y2="128.17" stroke="#000000" stroke-width="1.00"/>
<line class="edge-control-flow" x1="14.46" y1="119.13" x2="18.80" y2="154.86" stroke="#000000" stroke-width="1.00"/>
<line class="edge-control-flow" x1="30.38" y1="250.16" x2="33.75" y2="277.96" stroke="#000000" stroke-width="1.00"/>
<line class="edge-control-flow" x1="20.84" y1="118.18" x2="25.70" y2="145.75" stroke="#000000" stroke-width="1.00"/>
<line class="edge-control-flow" x1="91.93" y1="77.13" x2="113.37" y2="95.13" stroke="#000000" stroke-width="1.00"/>
<circle class="main-ring" cx="0.00" cy="0.00" r="120.00" fill="none" stroke="#000000" stroke-width="2.00"/>
<line class="sym-early-return" x1="-110.00" y1="0.00" x2="-132.00" y2="0.00" stroke="#000000" stroke-width="1.5"/>
<polygon class="sym-early-return" points="-132.00,0.00 -126.00,-4.00 -126.00,4.00" fill="#000000"/>
<circle class="aux-ring" cx="-72.34" cy="-190.74" r="48.00" fill="none" stroke="#000000" stroke-width="1.50"/>
<polygon class="sym-loop" points="-67.34,-232.74 -67.34,-224.74 -77.34,-228.74" fill="#000000"/>
<line class="sym-early-return" x1="-85.81" y1="-226.27" x2="-93.62" y2="-246.84" stroke="#000000" stroke-width="1.5"/>
<polygon class="sym-early-return" points="-93.62,-246.84 -87.75,-242.65 -95.23,-239.82" fill="#000000"/>
<circle class="aux-ring" cx="-198.07" cy="48.82" r="48.00" fill="none" stroke="#000000" stroke-width="1.50"/>
<polygon class="sym-loop" points="-193.07,6.82 -193.07,14.82 -203.07,10.82" fill="#000000"/>
<line class="sym-early-return" x1="-234.97" y1="57.91" x2="-256.33" y2="63.18" stroke="#000000" stroke-width="1.5"/>
<polygon class="sym-early-return" points="-256.33,63.18 -251.46,57.86 -249.55,65.63" fill="#000000"/>
<circle class="aux-ring" cx="24.59" cy="202.51" r="48.00" fill="none" stroke="#000000" stroke-width="1.50"/>
<polygon class="sym-loop" points="29.59,160.51 29.59,168.51 19.59,164.51" fill="#000000"/>
<line class="sym-early-return" x1="29.17" y1="240.24" x2="31.82" y2="262.08" stroke="#000000" stroke-width="1.5"/>
<polygon class="sym-early-return" points="31.82,262.08 27.13,256.60 35.07,255.64" fill="#000000"/>
</g>
<g class="layer-effects">
<circle class="op-dot" cx="104.00" cy="0.00" r="3.50" fill="#000000"/>
<circle class="op-dot" cx="92.09" cy="-48.33" r="3.50" fill="#000000"/>
<circle class="op-dot" cx="59.08" cy="-85.59" r="3.50" fill="#000000"/>
<circle class="op-dot" cx="12.54" cy="-103.24" r="3.50" fill="#000000"/>
<circle class="op-dot" cx="-36.88" cy="-97.24" r="3.50" fill="#000000"/>
<circle class="op-dot" cx="-77.85" cy="-68.96" r="3.50" fill="#000000"/>
<circle class="op-dot" cx="-100.98" cy="-24.89" r="3.50" fill="#000000"/>
<circle class="op-dot" cx="-100.98" cy="24.89" r="3.50" fill="#000000"/>
<circle class="op-dot" cx="-77.85" cy="68.96" r="3.50" fill="#000000"/>
<circle class="op-dot" cx="-36.88" cy="97.24" r="3.50" fill="#000000"/>
<circle class="op-dot" cx="12.54" cy="103.24" r="3.50" fill="#000000"/>
<circle class="op-dot" cx="59.08" cy="85.59" r="3.50" fill="#000000"/>
<circle class="op-dot" cx="92.09" cy="48.33" r="3.50" fill="#000000"/>
<circle class="summon-glyph" cx="162.00" cy="0.00" r="14.00" fill="#1f4dff"/>
<circle class="summon-glyph" cx="124.10" cy="-104.13" r="14.00" fill="#000000"/>
<circle class="summon-glyph" cx="28.13" cy="-159.54" r="14.00" fill="#1f4dff"/>
<circle class="op-dot" cx="-40.34" cy="-190.74" r="3.50" fill="#000000"/>
<circle class="summon-glyph" cx="-104.25" cy="-274.89" r="14.00" fill="#000000"/>
<circle class="summon-glyph" cx="-81.00" cy="-140.30" r="14.00" fill="#1f4dff"/>
<circle class="summon-glyph" cx="-152.23" cy="-55.41" r="14.00" fill="#1f4dff"/>
<circle class="op-dot" cx="-166.07" cy="48.82" r="3.50" fill="#000000"/>
<circle class="summon-glyph" cx="-285.46" cy="70.36" r="14.00" fill="#000000"/>
<circle class="summon-glyph" cx="-152.23" cy="55.41" r="14.00" fill="#1f4dff"/>
<circle class="summon-glyph" cx="-81.00" cy="140.30" r="14.00" fill="#1f4dff"/>
<circle class="op-dot" cx="56.59" cy="202.51" r="3.50" fill="#000000"/>
<circle class="summon-glyph" cx="35.44" cy="291.86" r="14.00" fill="#000000"/>
<circle class="summon-glyph" cx="28.13" cy="159.54" r="14.00" fill="#1f4dff"/>
<circle class="summon-glyph" cx="124.10" cy="104.13" r="14.00" fill="#1f4dff"/>
</g>
<g class="layer-type-info">
<text class="signature" font-size="11" fill="#000000"><textPath href="#sig-arc-0-0" startOffset="50%" text-anchor="middle">fn write_document (out : &amp; mut String , graph : &amp; MagiaGraph , layout : &amp; LayoutResult) -&gt; std :: fmt :: Result</textPath></text>
<line class="return-path-ok" x1="-120.00" y1="0.00" x2="-146.00" y2="-11.70" stroke="#000000" stroke-width="1"/>
<line class="return-path-err" x1="-120.00" y1="0.00" x2="-146.00" y2="11.70" stroke="#000000" stroke-width="1" stroke-dasharray="4 3"/>
</g>
</svg>
